<svg width="234" height="80" viewBox="0 0 234 80" fill="none" xmlns="http://www.w3.org/2000/svg">
<path d="M17.3243 34.1386C13.9645 34.5126 10 35.2673 10 37.5248C10 40.3465 15.6341 44.297 22.395 45.4257C29.1558 46.5545 34.2265 52.7624 34.2265 58.4059C34.2265 63.4851 32.3485 66.3069 31.4095 68C36.6679 65.3663 43.9171 61.4535 46.6215 60.099C49.3258 58.7446 56.7628 55.0198 63.5237 55.5842C64.0871 51.0693 64.2266 45.9349 63.5237 41.4752C61.8335 30.7525 53.3824 29.0594 53.3824 24.5446C52.8189 18.901 48.3117 11 48.3117 11C48.3117 11 44.9312 14.9505 42.6776 19.4653H40.424C38.7338 16.0792 36.4801 13.8218 36.4801 13.8218C34.7899 16.6436 34.2265 20.0297 34.2265 20.0297C29.1558 20.0297 22.395 33.5743 17.3243 34.1386Z" fill="#DCE8FC"/>
<path d="M69.684 43L75.876 13.84H79.8L86.028 43H82.176L80.844 35.656H74.904L73.5 43H69.684ZM75.444 32.74H80.304L77.856 19.6L75.444 32.74ZM88.9868 43V13.84H91.7588L100.039 33.208V13.84H103.423V43H100.831L92.4428 23.092V43H88.9868ZM108.222 43V13.84H112.218V43H108.222ZM116.864 43L117.404 13.84H121.4L126.548 37.492L131.732 13.84H135.692L136.232 43H132.956L132.632 21.832L127.7 43H125.396L120.5 21.832L120.176 43H116.864ZM140.702 43V13.84H152.006V16.864H144.77V26.512H150.638V29.392H144.77V40.084H152.078V43H140.702ZM155.362 43V13.84H161.698C163.858 13.84 165.562 14.176 166.81 14.848C168.082 15.496 168.982 16.48 169.51 17.8C170.062 19.12 170.338 20.764 170.338 22.732V33.46C170.338 35.524 170.062 37.264 169.51 38.68C168.982 40.096 168.106 41.176 166.882 41.92C165.682 42.64 164.062 43 162.022 43H155.362ZM159.43 40.084H161.734C163.222 40.084 164.278 39.796 164.902 39.22C165.526 38.644 165.898 37.804 166.018 36.7C166.162 35.596 166.234 34.264 166.234 32.704V23.236C166.234 21.724 166.138 20.5 165.946 19.564C165.754 18.628 165.334 17.944 164.686 17.512C164.038 17.08 163.018 16.864 161.626 16.864H159.43V40.084ZM174.562 43V13.84H178.558V43H174.562ZM181.692 43L187.884 13.84H191.808L198.036 43H194.184L192.852 35.656H186.912L185.508 43H181.692ZM187.452 32.74H192.312L189.864 19.6L187.452 32.74Z" fill="#DCE8FC"/>
<path d="M75.312 67.24C73.488 67.24 72.192 66.72 71.424 65.68C70.672 64.64 70.296 63.168 70.296 61.264V53.2C70.296 51.312 70.68 49.872 71.448 48.88C72.216 47.872 73.504 47.368 75.312 47.368C77.088 47.368 78.36 47.872 79.128 48.88C79.896 49.888 80.28 51.328 80.28 53.2V61.288C80.28 63.192 79.904 64.664 79.152 65.704C78.4 66.728 77.12 67.24 75.312 67.24ZM75.312 65.776C76.496 65.776 77.312 65.432 77.76 64.744C78.208 64.04 78.432 63.016 78.432 61.672V52.864C78.432 51.52 78.208 50.512 77.76 49.84C77.328 49.168 76.512 48.832 75.312 48.832C74.096 48.832 73.264 49.168 72.816 49.84C72.368 50.496 72.144 51.504 72.144 52.864V61.672C72.144 63.032 72.368 64.056 72.816 64.744C73.264 65.432 74.096 65.776 75.312 65.776ZM83.3134 47.56H84.6334L90.8254 62.656V47.56H92.4094V67H91.1134L84.8974 51.736V67H83.3134V47.56ZM95.7821 47.56H97.6061V65.632H103.126V67H95.7821V47.56ZM104.994 47.56H106.818V67H104.994V47.56ZM110.267 47.56H111.587L117.779 62.656V47.56H119.363V67H118.067L111.851 51.736V67H110.267V47.56ZM122.711 47.56H129.743V48.976H124.559V56.272H128.783V57.616H124.559V65.632H129.791V67H122.711V47.56Z" fill="#E63216"/>
<path d="M202.408 12.176H199.312V9.56H208.984V12.176H205.96V29H202.408V12.176ZM209.841 9.56H212.961L215.529 23.312L217.953 9.56H221.145L217.233 29H213.753L209.841 9.56Z" fill="#E63216"/>
</svg>
